{
  "accessors": [
    {
      "bufferView": 2,
      "componentType": 5126,
      "count": 2634,
      "max": [
        3.348324775695801,
        9.837813377380371,
        1.2614868879318237
      ],
      "min": [
        -3.348324775695801,
        -0.0395861454308033,
        -0.8323121070861816
      ],
      "type": "VEC3"
    },
    {
      "bufferView": 2,
      "byteOffset": 31608,
      "componentType": 5126,
      "count": 2634,
      "max": [
        0.9976257085800171,
        0.9999061822891235,
        0.999864935874939
      ],
      "min": [
        -0.9976257681846619,
        -0.9999875426292419,
        -1.0
      ],
      "type": "VEC3"
    },
    {
      "bufferView": 3,
      "componentType": 5126,
      "count": 2634,
      "max": [
        1.0,
        0.9999575614929199,
        0.9999061822891235,
        1.0
      ],
      "min": [
        -1.0,
        -0.9996423721313477,
        -0.9998729825019836,
        -1.0
      ],
      "type": "VEC4"
    },
    {
      "bufferView": 1,
      "componentType": 5126,
      "count": 2634,
      "max": [
        0.9977307319641113,
        0.9975320100784302
      ],
      "min": [
        0.0065920352935791016,
        0.0034520626068115234
      ],
      "type": "VEC2"
    },
    {
      "bufferView": 0,
      "componentType": 5125,
      "count": 8094,
      "type": "SCALAR"
    }
  ],
  "asset": {
    "extras": {
      "author": "SkyFightUltra (https://sketchfab.com/SkyFightUltra)",
      "license": "CC-BY-4.0 (http://creativecommons.org/licenses/by/4.0/)",
      "source": "https://sketchfab.com/3d-models/low-poly-goblin-ac865f8b482f4dd584494e21a988d118",
      "title": "Low poly Goblin"
    },
    "generator": "Sketchfab-14.38.0",
    "version": "2.0"
  },
  "bufferViews": [
    {
      "buffer": 0,
      "byteLength": 32376,
      "name": "floatBufferViews",
      "target": 34963
    },
    {
      "buffer": 0,
      "byteLength": 21072,
      "byteOffset": 32376,
      "byteStride": 8,
      "name": "floatBufferViews",
      "target": 34962
    },
    {
      "buffer": 0,
      "byteLength": 63216,
      "byteOffset": 53448,
      "byteStride": 12,
      "name": "floatBufferViews",
      "target": 34962
    },
    {
      "buffer": 0,
      "byteLength": 42144,
      "byteOffset": 116664,
      "byteStride": 16,
      "name": "floatBufferViews",
      "target": 34962
    }
  ],
  "buffers": [
    {
      "byteLength": 158808,
      "uri": "scene.bin"
    }
  ],
  "images": [
    {
      "uri": "textures/Goblin_Diff_baseColor.png"
    },
    {
      "uri": "textures/Goblin_Diff_metallicRoughness.png"
    },
    {
      "uri": "textures/Goblin_Diff_emissive.png"
    },
    {
      "uri": "textures/Goblin_Diff_normal.png"
    }
  ],
  "materials": [
    {
      "doubleSided": true,
      "emissiveFactor": [
        1.0,
        1.0,
        1.0
      ],
      "emissiveTexture": {
        "index": 2
      },
      "name": "Goblin_Diff",
      "normalTexture": {
        "index": 3
      },
      "pbrMetallicRoughness": {
        "baseColorTexture": {
          "index": 0
        },
        "metallicRoughnessTexture": {
          "index": 1
        },
        "roughnessFactor": 0.48000146286160106
      }
    }
  ],
  "meshes": [
    {
      "name": "polySurface15_Goblin_Diff_0",
      "primitives": [
        {
          "attributes": {
            "NORMAL": 1,
            "POSITION": 0,
            "TANGENT": 2,
            "TEXCOORD_0": 3
          },
          "indices": 4,
          "material": 0,
          "mode": 4
        }
      ]
    }
  ],
  "nodes": [
    {
      "children": [
        1
      ],
      "matrix": [
        1.0,
        0.0,
        0.0,
        0.0,
        0.0,
        2.220446049250313e-16,
        -1.0,
        0.0,
        0.0,
        1.0,
        2.220446049250313e-16,
        0.0,
        0.0,
        0.0,
        0.0,
        1.0
      ],
      "name": "Sketchfab_model"
    },
    {
      "children": [
        2
      ],
      "matrix": [
        0.009999999776482582,
        0.0,
        0.0,
        0.0,
        0.0,
        0.0,
        0.009999999776482582,
        0.0,
        0.0,
        -0.009999999776482582,
        0.0,
        0.0,
        0.0,
        0.0,
        0.0,
        1.0
      ],
      "name": "1a5c8c45a6ba405d81c2c077b6ed524e.fbx"
    },
    {
      "children": [
        3
      ],
      "name": "RootNode"
    },
    {
      "children": [
        4
      ],
      "name": "polySurface15"
    },
    {
      "mesh": 0,
      "name": "polySurface15_Goblin_Diff_0"
    }
  ],
  "samplers": [
    {
      "magFilter": 9729,
      "minFilter": 9987,
      "wrapS": 10497,
      "wrapT": 10497
    }
  ],
  "scene": 0,
  "scenes": [
    {
      "name": "Sketchfab_Scene",
      "nodes": [
        0
      ]
    }
  ],
  "textures": [
    {
      "sampler": 0,
      "source": 0
    },
    {
      "sampler": 0,
      "source": 1
    },
    {
      "sampler": 0,
      "source": 2
    },
    {
      "sampler": 0,
      "source": 3
    }
  ]
}
